<svg width="100" height="85" viewBox="0 0 100 85" fill="none" xmlns="http://www.w3.org/2000/svg">
<path d="M17.0044 15.7551C12.4268 23.2621 13.021 30.8889 13.6515 38.9805C14.1111 44.8776 16.1225 70.6782 31.3727 76.8999C37.7894 79.5179 48.0298 75.9946 68.2494 68.842C79.2975 64.9334 83.8893 64.8593 88.8437 60.7842C94.9776 55.7386 102.17 45.9701 99.3799 38.9801C96.8366 32.6077 88.606 35.083 78.3073 27.6045C65.73 18.4719 69.4834 8.59201 59.6282 2.95686C47.5176 -3.96739 25.5982 1.66141 17.0044 15.7551Z" fill="#E8F5FF"/>
<path d="M34.1594 71.7972C21.6605 64.0348 18.6576 51.1959 18.0849 48.4313C15.6626 36.7359 18.3279 19.8621 31.6476 11.6422C41.2917 5.69029 53.5876 6.08647 61.7871 10.1506C65.0487 11.7674 65.871 13.0763 76.8569 22.5793C87.996 32.215 89.1458 31.519 90.4198 34.0137C95.748 44.4498 86.4947 65.1641 69.8245 73.2886C68.8324 73.7723 50.8462 82.1607 34.1594 71.7972Z" fill="#ECFFF2"/>
<path d="M77.3247 16.1307C76.1126 18.1686 81.6071 24.8005 84.0237 24.0051C85.5252 23.5104 86.5625 19.9081 84.8616 17.3736C82.8292 14.3455 78.156 14.7328 77.3247 16.1307Z" fill="#FBF3DA"/>
<path d="M14.0644 11.8908C14.0644 12.5774 13.5023 13.1337 12.8086 13.1337C12.1148 13.1337 11.5527 12.5774 11.5527 11.8908C11.5527 11.2043 12.1148 10.6479 12.8085 10.6479C13.5023 10.6479 14.0644 11.2043 14.0644 11.8908Z" fill="#FAE3A6"/>
<path d="M18.0835 68.3172C18.0835 68.8661 17.6334 69.3115 17.0789 69.3115C16.5243 69.3115 16.0742 68.8661 16.0742 68.3172C16.0742 67.7684 16.5243 67.3229 17.0789 67.3229C17.6334 67.3229 18.0835 67.7684 18.0835 68.3172Z" fill="#FAE3A6"/>
<path d="M2.51163 47.1884C2.51164 47.875 1.94954 48.4313 1.25582 48.4313C0.562111 48.4313 7.02194e-06 47.875 4.52328e-06 47.1884C2.02462e-06 46.5019 0.562102 45.9456 1.25581 45.9456C1.94953 45.9455 2.51163 46.5019 2.51163 47.1884Z" fill="#FDF6E2"/>
<path d="M95.4429 62.8483C95.4429 63.3971 94.9928 63.8426 94.4383 63.8426C93.8837 63.8426 93.4336 63.3972 93.4336 62.8483C93.4336 62.2994 93.8837 61.854 94.4382 61.854C94.9928 61.854 95.4429 62.2994 95.4429 62.8483Z" fill="#10A242"/>
<path d="M71.3292 6.42199C71.3292 6.83412 70.9917 7.16771 70.5758 7.16771C70.1598 7.16772 69.8223 6.83413 69.8223 6.42199C69.8223 6.00986 70.1598 5.67627 70.5758 5.67627C70.9917 5.67627 71.3292 6.00985 71.3292 6.42199Z" fill="#10A242"/>
<path d="M97.9539 17.1105C97.9539 17.385 97.7293 17.6077 97.4515 17.6077C97.1738 17.6077 96.9492 17.385 96.9492 17.1106C96.9492 16.8361 97.1738 16.6134 97.4515 16.6134C97.7293 16.6134 97.9539 16.8361 97.9539 17.1105Z" fill="#10A242"/>
<path d="M9.04214 28.7939C9.04214 29.206 8.70508 29.5396 8.28865 29.5396C7.87222 29.5396 7.53516 29.206 7.53516 28.7939C7.53516 28.3817 7.87222 28.0482 8.28864 28.0482C8.70507 28.0482 9.04213 28.3817 9.04214 28.7939Z" fill="#10A242"/>
<path d="M10.046 37.494C10.046 38.5922 9.1463 39.4826 8.03666 39.4826C6.92702 39.4826 6.02735 38.5922 6.02735 37.494C6.02735 36.3958 6.92701 35.5054 8.03665 35.5054C9.14628 35.5054 10.046 36.3958 10.046 37.494Z" fill="#FBF3DA"/>
<path d="M76.3538 12.1392C76.3538 12.963 75.6792 13.6307 74.8468 13.6307C74.0145 13.6307 73.3399 12.963 73.3398 12.1392C73.3398 11.3154 74.0145 10.6478 74.8468 10.6478C75.6792 10.6478 76.3538 11.3154 76.3538 12.1392Z" fill="#FBF3DA"/>
<path d="M7.42815 51.5937C7.9541 54.5353 11.3528 56.1043 12.2555 55.4655C13.6304 54.4915 10.9856 47.1367 9.13052 47.2168C8.10527 47.261 7.06898 49.5862 7.42815 51.5937Z" fill="#FBF3DA"/>
<path d="M63.8431 54.7015L63.843 85L56.0233 79.7595L56.0234 54.7015L63.8431 54.7015Z" fill="#EE4439"/>
<path d="M46.0141 54.7015L46.014 79.7595L38.1932 85L38.1934 54.7015L46.0141 54.7015Z" fill="#EE4439"/>
<path d="M56.0236 54.701L56.0235 79.7595L51.0185 76.4023L46.0136 79.7595L46.0137 54.701L56.0236 54.701Z" fill="#FFE4E4"/>
<path d="M57.202 7.40684L52.5683 8.89684C51.5716 9.22041 50.4914 9.22042 49.4902 8.90128L44.8609 7.41474C42.8088 6.75581 40.563 7.48015 39.2925 9.20815L36.4335 13.1062C35.8174 13.9496 34.9444 14.5761 33.9472 14.8996L29.3134 16.3941C27.2658 17.053 25.8756 18.9453 25.8756 21.0824L25.8801 25.9015C25.8801 26.9416 25.5487 27.9565 24.9326 28.8004L22.0736 32.6984C20.8036 34.4264 20.8076 36.7681 22.0776 38.4917L24.9411 42.3898C25.5612 43.2336 25.8926 44.2446 25.8926 45.2886L25.8966 50.1038C25.901 52.2409 27.2908 54.1332 29.3428 54.7916L33.9726 56.2782C34.9738 56.5973 35.8463 57.2238 36.4669 58.0676L39.3299 61.9617C40.5999 63.6892 42.8462 64.4097 44.8983 63.7512L49.5276 62.2563C50.5288 61.9366 51.605 61.9322 52.6062 62.2563L57.239 63.7423C59.2915 64.4017 61.5378 63.6764 62.8039 61.9489L65.6623 58.0469C66.2829 57.2035 67.1519 56.577 68.1531 56.2535L72.7824 54.763C74.8345 54.0996 76.2247 52.2084 76.2202 50.0712L76.2162 45.2516C76.2162 44.2116 76.5511 43.1961 77.1677 42.3572L80.0262 38.4547C81.2922 36.7272 81.2922 34.3889 80.0227 32.6609L77.1598 28.7633C76.5392 27.9239 76.2038 26.9085 76.2038 25.8684L76.1998 21.0493C76.1998 18.9117 74.8095 17.0204 72.7575 16.3654L68.1237 14.8789C67.1225 14.5553 66.254 13.9289 65.6334 13.0899L62.7704 9.19186C61.8155 7.89267 60.306 7.16292 58.7448 7.16293C58.2301 7.16293 57.7098 7.2421 57.202 7.40684Z" fill="url(#paint0_linear_3597_1520)"/>
<path d="M30.3145 35.9448C30.3145 46.9383 39.3585 55.8885 50.4665 55.8885C61.5749 55.8885 70.6184 46.9382 70.6184 35.9447C70.6183 24.9512 61.5748 16.001 50.4664 16.001C39.3584 16.001 30.3145 24.9513 30.3145 35.9448Z" fill="url(#paint1_linear_3597_1520)"/>
<path d="M50.466 14.6536C38.5824 14.6536 28.9531 24.1837 28.9532 35.9448C28.9532 47.7064 38.5825 57.2359 50.4661 57.2359C62.3496 57.2358 71.9789 47.7063 71.9789 35.9447C71.9788 24.1836 62.3495 14.6535 50.466 14.6536ZM50.4661 55.1504C39.7695 55.1504 31.0604 46.5316 31.0604 35.9448C31.0604 25.3585 39.7694 16.7396 50.466 16.7396C61.163 16.7395 69.8716 25.3584 69.8717 35.9447C69.8717 46.5315 61.1631 55.1504 50.4661 55.1504Z" fill="white"/>
<path d="M50.4671 13.8348C38.1264 13.8349 28.127 23.7308 28.127 35.9443C28.127 48.1583 38.1265 58.0547 50.4672 58.0547C62.8079 58.0546 72.8073 48.1582 72.8073 35.9442C72.8072 23.7307 62.8078 13.8348 50.4671 13.8348ZM50.4672 55.8885C39.3592 55.8886 30.3152 46.9383 30.3152 35.9443C30.3152 24.9508 39.3591 16.001 50.4671 16.001C61.5755 16.001 70.619 24.9507 70.6191 35.9442C70.6191 46.9382 61.5756 55.8885 50.4672 55.8885Z" fill="#0B662A"/>
<path d="M63.2192 33.0578L45.3956 47.3917C44.7178 47.9371 43.7226 47.8421 43.1626 47.1788L36.7605 39.5931C35.959 38.6435 36.0877 37.2307 37.0477 36.439C38.0071 35.6483 39.4331 35.7771 40.2321 36.7272L43.7609 40.9213C44.3203 41.5866 45.3161 41.683 45.9948 41.1367L60.3647 29.5811C61.3346 28.8012 62.7596 28.9472 63.5476 29.9071C64.3362 30.867 64.1891 32.2778 63.2192 33.0578Z" fill="#17AC4A"/>
<path d="M63.2192 31.4197L45.3956 45.7536C44.7178 46.299 43.7226 46.2041 43.1626 45.5407L36.7605 37.955C35.959 37.0055 36.0877 35.5927 37.0477 34.8009C38.0071 34.0102 39.4331 34.1391 40.2321 35.0891L43.7609 39.2832C44.3203 39.9486 45.3161 40.0449 45.9948 39.4986L60.3647 27.943C61.3346 27.1631 62.7596 27.3092 63.5476 28.2691C64.3362 29.229 64.1891 30.6398 63.2192 31.4197Z" fill="white"/>
<defs>
<linearGradient id="paint0_linear_3597_1520" x1="50.1605" y1="10.5019" x2="50.9256" y2="60.1686" gradientUnits="userSpaceOnUse">
<stop stop-color="#3EEA79"/>
<stop offset="0.48" stop-color="#27D763"/>
<stop offset="1" stop-color="#10A242"/>
</linearGradient>
<linearGradient id="paint1_linear_3597_1520" x1="50.5141" y1="15.2914" x2="51.0359" y2="56.3524" gradientUnits="userSpaceOnUse">
<stop stop-color="#23BD59"/>
<stop offset="0.48" stop-color="#128339"/>
<stop offset="1" stop-color="#065622"/>
</linearGradient>
</defs>
</svg>
