<svg width="36" height="36" viewBox="0 0 36 36" fill="none" xmlns="http://www.w3.org/2000/svg">
<path d="M12.8875 35.1693C8.69272 34.3098 5.0134 31.83 2.65894 28.2752C0.304481 24.7205 -0.532246 20.3821 0.33283 16.2144C1.19791 12.0468 3.69392 8.39121 7.27178 6.05197C10.8496 3.71273 15.2163 2.88141 19.4111 3.7409L16.1493 19.4551L12.8875 35.1693Z" fill="#5584CE"/>
<path d="M22.3494 0.436237C26.5511 1.26133 30.2509 3.71099 32.6348 7.24631C35.0187 10.7816 35.8914 15.113 35.0609 19.2876C34.2305 23.4623 31.7649 27.1381 28.2065 29.5066C24.6482 31.8751 20.2886 32.7421 16.0869 31.917L19.2181 16.1766L22.3494 0.436237Z" fill="#ED3237"/>
</svg>
